<svg xmlns="http://www.w3.org/2000/svg" data-name="Layer 1" viewBox="0 0 128 128" height="128" width="128">
    <defs>
        <clipPath id="a">
            <circle cx="64" cy="64" r="64" fill="none"/>
        </clipPath>
    </defs>
    <g clip-path="url(#a)">
        <circle cx="64" cy="64" r="64" fill="#094e66"/>
        <path fill="#0b769b" d="M37.967 30.656l1.414-1.414 84.337 84.337-1.414 1.414z"/>
        <path fill="#47b4da" d="M75.56 59.49H64v47l46.76-47h-35.2z"/>
        <path fill="#47b4da" d="M67.48 59.49h12.56l-16.04 47v-47h3.48z"/>
        <path fill="#0b769b" d="M80.04 59.49l-16.04 47 33.21-47H80.04z"/>
        <path fill="#c4e3e4" d="M80.04 59.49h17.17l.25-22.93-17.42 22.93z"/>
        <path fill="#47b4da" d="M80.04 59.49h17.17l.25-22.93-17.42 22.93z"/>
        <path fill="#c4e3e4" d="M110.76 59.49H97.21l.25-22.93 13.3 22.93z"/>
        <path fill="#0b769b" d="M110.76 59.49H97.21l.25-22.93 13.3 22.93z"/>
        <path fill="#c4e3e4" d="M64 36.56h33.46L80.04 59.49 64 36.56zm5.14 22.93H64V36.56l16.04 22.93h-10.9z"/>
        <path fill="#0b769b" d="M69.14 59.49H64V36.56l16.04 22.93h-10.9z"/>
        <path fill="#c4e3e4" d="M52.44 59.49H64v47l-46.76-47h35.2z"/>
        <path fill="#c4e3e4" d="M60.52 59.49H47.96l16.04 47v-47h-3.48z"/>
        <path fill="#47b4da" d="M47.96 59.49l16.04 47-33.21-47h17.17z"/>
        <path fill="#c4e3e4" d="M47.96 59.49H30.79l-.25-22.93 17.42 22.93z"/>
        <path fill="#f5a1be" d="M47.96 59.49H30.79l-.25-22.93 17.42 22.93z"/>
        <path fill="#fff" d="M17.24 59.49h13.55l-.25-22.93-13.3 22.93zM64 36.56H30.54l17.42 22.93L64 36.56z"/>
        <path fill="#47b4da" d="M58.85 59.49H64V36.56L47.96 59.49h10.89z"/>
        <circle cx="64" cy="64" r="64" fill="none"/>
        <path d="M104 85.46a6 6 0 0 1 6-6 6 6 0 0 1-6-6 6 6 0 0 1-6 6 6 6 0 0 1 6 6z" fill="#47b4da"/>
        <path d="M25.37 90.83a7 7 0 0 1 7-7 7 7 0 0 1-7-7 7 7 0 0 1-7 7 7 7 0 0 1 7 7z" fill="#c4e3e4"/>
        <path d="M110.42 87.32a2.5 2.5 0 0 1 2.5-2.5 2.5 2.5 0 0 1-2.5-2.5 2.5 2.5 0 0 1-2.5 2.5 2.5 2.5 0 0 1 2.5 2.5z" fill="#47b4da"/>
        <path d="M110.42 76a3 3 0 0 1 3-3 3 3 0 0 1-3-3 3 3 0 0 1-3 3 3 3 0 0 1 3 3z" fill="#f5a1be"/>
        <path d="M33.64 17.79a7 7 0 0 1-7 7 7 7 0 0 1 7 7 7 7 0 0 1 7-7 7 7 0 0 1-7-7z" fill="#c4e3e4"/>
        <path d="M41.41 15.93a3 3 0 0 1-3 3 3 3 0 0 1 3 3 3 3 0 0 1 3-3 3 3 0 0 1-3-3z" fill="#f5a1be"/>
        <path d="M45.52 21.79a3 3 0 0 1-3 3 3 3 0 0 1 3 3 3 3 0 0 1 3-3 3 3 0 0 1-3-3z" fill="#c4e3e4"/>
        <path d="M32.7 95.2a3.5 3.5 0 0 1 3.5-3.5 3.5 3.5 0 0 1-3.5-3.5 3.5 3.5 0 0 1-3.5 3.5 3.5 3.5 0 0 1 3.5 3.5z" fill="#f5a1be"/>
        <circle cx="64" cy="64" r="64" fill="none"/>
        <path fill="#0b769b" d="M112.16 78.49h19v2h-19zm-80.6 19.16h2v26.44h-2zm11.306-83.969L62.715-6.167l1.414 1.414L44.28 15.095zm-32.61 32.608L27.305 29.24l1.414 1.414L11.67 47.703zm25.917 50.484l1.414-1.415 23.702 23.703-1.414 1.414z"/>
    </g>
</svg>