<svg xmlns="http://www.w3.org/2000/svg" data-name="Layer 1" viewBox="0 0 128 128" height="128" width="128">
    <defs>
        <clipPath id="a">
            <circle cx="64" cy="64" r="64" fill="none"/>
        </clipPath>
    </defs>
    <g clip-path="url(#a)">
        <circle cx="64" cy="64" r="64" fill="#312b46"/>
        <path fill="#094e66" d="M57.703 109.16l73.25-73.249 7.07 7.071-73.249 73.25zm-78.21 13.336l73.25-73.249 7.07 7.071-73.249 73.25z"/>
        <path fill="#094e66" d="M27.625.893l7.072-7.071L107.4 66.527l-7.07 7.07z"/>
        <g clip-path="url(#a)">
            <path fill="#47b4da" d="M61.24 119.76L21.71 80.22l84.34-84.33 7.07 7.07-77.27 77.26 25.39 25.39 10.99-10.98-11.76-11.77 7.07-7.07 18.83 18.84-25.13 25.13z"/>
            <path fill="#0b769b" d="M61.24 114.1L27.37 80.22l81.51-81.51 1.41 1.42L30.2 80.22l31.04 31.05 16.65-16.64-14.6-14.59 1.42-1.42 16 16.01-19.47 19.47z"/>
        </g>
    </g>
    <path d="M64 10.65A19.81 19.81 0 0 0 44.67 35v.07a19.74 19.74 0 0 0 1 3.07l13.47 42.29A5 5 0 0 0 64 84a5 5 0 0 0 4.86-3.55l13.43-42.19A19.87 19.87 0 0 0 64 10.65z" fill="#ea457d"/>
    <path d="M44.14 30.51a19.86 19.86 0 0 0 .53 4.49v.07a19.75 19.75 0 0 0 1 3.07l13.47 42.29A5 5 0 0 0 64 84V10.65a19.86 19.86 0 0 0-19.86 19.86z" fill="#f5a1be"/>
    <circle cx="64" cy="30.51" r="7.66" fill="#272727"/>
</svg>