<svg xmlns="http://www.w3.org/2000/svg" data-name="Layer 1" viewBox="0 0 600 600" height="600" width="600">
    <defs>
        <clipPath id="a">
            <circle cx="300" cy="300" r="300" fill="none"/>
        </clipPath>
    </defs>
    <g clip-path="url(#a)">
        <circle cx="300" cy="300" r="300" fill="#094e66"/>
        <path d="M245.68 502c-65.6-32.15-108-100.11-108-173.16V197.08l161.81-72.39V82.6l-200.2 89.58v156.63a231.22 231.22 0 0 0 129.47 207.65l70.76 34.73v-42.8z" fill="#2b8f70"/>
        <path d="M300 82.37l-.46.23v42.09l.49-.22 162.28 72.61v131.73c0 73-42.37 141-108 173.15L300 528.62l-.47-.23v42.8l.46.23 71.26-35a231.29 231.29 0 0 0 129.46-207.61V172.18z" fill="#282727"/>
        <path d="M137.71 328.81c0 73.05 42.37 141 108 173.16l53.84 26.42v-12.84l-48.76-23.93c-61.68-30.23-101.53-94.13-101.53-162.81V204.55l150.29-67.24v-12.62l-161.84 72.39z" fill="#c6e4e5"/>
        <path d="M432.1 432a192.85 192.85 0 0 0 30.19-103.18V197.08L300 124.47l-.49.22v12.62l.49-.22 150.76 67.46v124.26c0 68.67-39.85 132.57-101.51 162.81L300 515.78l-.47-.23v12.84l.47.23L354.33 502a192.8 192.8 0 0 0 77.77-70" fill="#4db5d9"/>
        <path d="M149.71 204.89v124.26c0 68.67 39.85 132.58 101.53 162.8L300 515.88V137.64z" style="fill: rgb(39, 110, 241);"/>
        <path d="M349.26 491.62c61.66-30.24 101.51-94.14 101.51-162.81V204.55L300 137.09l-.49.22v378.24l.47.23z" fill="#2b8f70"/>
        <path fill="#ffbe15" d="M629.25 581.19l-221.8-221.8-.75-17.3 230.83 230.83-8.28 8.27z"/>
        <path d="M452.78 388.17l-9.2-9.21c-1.22 4.2-2.61 8.35-4.12 12.44l8.89 8.89q2.42-5.98 4.43-12.12zM347.74 76.21v.16a30.41 30.41 0 0 1 30.42 30.41 30.41 30.41 0 0 1 30.41-30.41v-.16a30.42 30.42 0 0 1-30.41-30.42 30.42 30.42 0 0 1-30.42 30.42z" fill="#c6e4e5"/>
        <path d="M171.91 118.23v.27a52.47 52.47 0 0 1 52.47 52.5 52.47 52.47 0 0 1 52.46-52.47v-.27a52.47 52.47 0 0 1-52.46-52.47 52.47 52.47 0 0 1-52.47 52.44z" fill="#ffeb85"/>
        <path d="M276.7 63.53l.12.12a32.86 32.86 0 0 1 46.48 0 32.88 32.88 0 0 1 0-46.48l-.12-.13a32.86 32.86 0 0 1-46.48 0 32.89 32.89 0 0 1 0 46.49z" fill="#ffbe15"/>
        <path fill="#c6e4e5" d="M375.14 256.72h87.15v2.34h-87.15z"/>
        <path fill="none" stroke="#4db5d9" stroke-miterlimit="10" stroke-width="2.341" d="M462.29 257.89h38.42"/>
        <path fill="none" stroke="#ffbe15" stroke-miterlimit="10" stroke-width="2.341" d="M500.71 257.89h38.42"/>
        <path fill="#c6e4e5" d="M427.06 287.71h35.78v7.02h-35.78z"/>
        <path fill="none" stroke="#4db5d9" stroke-miterlimit="10" stroke-width="7.024" d="M462.29 291.22h38.42"/>
        <path fill="none" stroke="#ffbe15" stroke-miterlimit="10" stroke-width="7.024" d="M500.71 291.22h112.92m-187.12 0h24.26"/>
        <path fill="none" stroke="#ffeb85" stroke-miterlimit="10" stroke-width="4.683" d="M76.1 63.65l65.61 65.61m19.2 146.28h41.73"/>
        <path fill="none" stroke="#ffbe15" stroke-miterlimit="10" stroke-width="2.341" d="M375.14 257.89h75.7"/>
        <path d="M284.71 361.85a14.81 14.81 0 0 0 14.81 14.81V347a14.81 14.81 0 0 0-14.81 14.85zm-9.37 36.73a18 18 0 0 1-17-12.17l-4.49-13.1h-32.43a6.64 6.64 0 0 0-6.45 8.2 89.06 89.06 0 0 0 63.31 59.14c.89.22 1.77.47 2.67.66l.33.06a6.68 6.68 0 0 0 7.92-6.54v-17a44.51 44.51 0 0 0-4.39-19.29zM211 346.83a4.94 4.94 0 0 0 6.69 4.88l25.31-9.82 12-5.15c3.38-1.46 6.83-2.72 10.3-3.83a112.45 112.45 0 0 1 34.24-5.33v-62A89 89 0 0 0 211 346.83z" fill="none"/>
        <path d="M284.71 361.85A14.81 14.81 0 0 1 299.52 347v-19.42a112.45 112.45 0 0 0-34.24 5.33c-3.47 1.11-6.92 2.37-10.3 3.83L243 341.89l-25.33 9.82a4.94 4.94 0 0 1-6.69-4.88 89 89 0 0 1 88.5-81.24v-19.75a108.6 108.6 0 0 0 0 217.2v-86.38a14.81 14.81 0 0 1-14.77-14.81zm4.49 73a6.68 6.68 0 0 1-7.92 6.54l-.33-.06c-.9-.19-1.78-.44-2.67-.66A89.06 89.06 0 0 1 215 381.51a6.64 6.64 0 0 1 6.45-8.2h32.39l4.49 13.1a18 18 0 0 0 17 12.17h9.47a44.51 44.51 0 0 1 4.39 19.29z" fill="#094e66"/>
        <path d="M408.12 354.44a108.6 108.6 0 0 0-108.6-108.6v19.75A89 89 0 0 1 388 346.8a4.94 4.94 0 0 1-6.69 4.91L356 341.88l-11.94-5.14c-3.38-1.46-6.83-2.72-10.3-3.83a112.45 112.45 0 0 0-34.24-5.33V347a14.81 14.81 0 0 1 0 29.62V463a108.6 108.6 0 0 0 108.6-108.56zm-87.22 86.18c-1 .24-1.93.51-2.91.72h-.16a6.68 6.68 0 0 1-8-6.53v-17a44.37 44.37 0 0 1 4.4-19.29h8.62a18 18 0 0 0 16.94-11.89l4.84-13.38h33A6.67 6.67 0 0 1 384 382a89.14 89.14 0 0 1-63.1 58.62z" fill="#282727"/>
        <path d="M311.88 442.4c2-.28 3.95-.63 5.9-1q-2.9.6-5.9 1zM387 340.09h-87.6v-74.5a89 89 0 0 1 87.6 74.5zm-69.21 101.27z" fill="none"/>
        <path d="M299.4 245.84v19.75a88.88 88.88 0 0 1 78.87 48.06l29.09 29.1a108.6 108.6 0 0 0-107.96-96.91z" fill="#282727"/>
        <path d="M342.21 277.6l-8.27 8.28 52.85 52.85a88.48 88.48 0 0 0-8.52-25.08z" fill="#ffbe15"/>
        <path d="M407.36 342.75l-29.09-29.1a88.48 88.48 0 0 1 8.52 25.08l21.07 21.07c.09-1.77.14-3.56.14-5.36a110.06 110.06 0 0 0-.64-11.69z" fill="#4db5d9"/>
        <path d="M351.55 292.48l10.66 16-16.06-10.63a42.09 42.09 0 0 0-46.76.12V193.86a42 42 0 0 0 14.49-16.41l8.6-17.23-1.2 19.22a42.11 42.11 0 0 0 44.65 44.65l19.22-1.19-17.25 8.59a42.14 42.14 0 0 0-16.35 60.99z" fill="#ffbe15"/>
        <path d="M346.54 256.58a108.19 108.19 0 0 0-47.14-10.74v19.75a88.23 88.23 0 0 1 46.25 13 42 42 0 0 1 .89-22.01zm136.19 161.54l-30-29.95q-2 6.13-4.43 12.12l29.25 29.25c1.87-3.75 3.57-7.54 5.18-11.42z" fill="#4db5d9"/>
        <path d="M515.21 422l-24.87-24.86q-1.15 3.76-2.45 7.47L510.24 427z" fill="#ffbe15"/>
        <path d="M471.23 378.05l-5 5 21.63 21.62q1.29-3.7 2.45-7.47z" fill="#4db5d9"/>
        <path fill="#ffbe15" d="M339.91 198.21l6.62 6.62 32.42-32.42-9.15-4.09-29.89 29.89z"/>
        <path fill="#c6e4e5" d="M378.52 159.6l-8.72 8.72 9.15 4.09 8.72-8.72-9.15-4.09z"/>
        <path fill="#4db5d9" d="M378.52 159.6l9.15 4.09 29.08-29.08-9.15-4.09-29.08 29.08z"/>
        <path fill="#ffbe15" d="M509.61 28.51L407.6 130.52l9.15 4.09 99.49-99.48-6.63-6.62zM383.35 184.84l1.66 1.65 7.85-7.85-2.29-1.03-7.22 7.23z"/>
        <path fill="#c6e4e5" d="M399.3 168.89l-8.73 8.72 2.29 1.03 8.72-8.73-2.28-1.02z"/>
        <path fill="#4db5d9" d="M399.3 168.89l2.28 1.02 29.08-29.07-2.29-1.03-29.07 29.08z"/>
        <path fill="#ffbe15" d="M449.2 118.99l-20.83 20.82 2.29 1.03 20.19-20.2-1.65-1.65zm-118.15 53.95l1.65 1.65 15.81-15.8-2.29-1.02-15.17 15.17z"/>
        <path fill="#4db5d9" d="M369.01 134.98l-14.07 14.07 2.29 1.02 13.43-13.44-1.65-1.65z"/>
        <path fill="#c6e4e5" d="M346.22 157.77l2.29 1.02 8.72-8.72-2.29-1.02-8.72 8.72z"/>
        <path fill="#fff" d="M137.71 239.99h11.52v11.71h-11.52z"/>
        <path fill="#c6e4e5" d="M99.29 239.99h38.42v11.71H99.29z"/>
        <path fill="#ffeb85" d="M-22.48 239.99H99.29v11.71H-22.48zm171.71 0h41.56v11.71h-41.56z"/>
        <path d="M286.91 442.23c-2-.28-4-.63-5.89-1q2.9.58 5.89 1z" fill="none"/>
        <path d="M275.34 439.79c1.87.53 3.76 1 5.68 1.4a6.69 6.69 0 0 0 8.05-6.53v-17a44.37 44.37 0 0 0-10.93-29.24c-7.62-8.75-13.3-14.5-14-15.24L229 408.32a89 89 0 0 0 46.34 31.47zm-54.04-66.65a6.66 6.66 0 0 0-6.39 8.54 88.25 88.25 0 0 0 10 20.83l29.37-29.37z" fill="none"/>
        <path d="M206.2 350l-14.88 14.88a108.82 108.82 0 0 0 2.36 14.19l20.8-20.8zm18.69 52.51l-14.27 14.27q2 2.91 4.26 5.67L229 408.32a88.077 88.077 0 0 1-4.11-5.81z" fill="#fff"/>
        <path d="M275.34 440c1.87.53 3.76 1 5.68 1.4a6.69 6.69 0 0 0 8.05-6.53v-17a44.39 44.39 0 0 0-10.93-29.24C270 379.24 264 373.31 264 373.31h-42.7a6.66 6.66 0 0 0-6.39 8.54A89.19 89.19 0 0 0 275.34 440z" fill="none"/>
        <path d="M299.39 193.86v52a108 108 0 0 0-65.18 21.75h-1.1l-19.23 1.2 17.26-8.57a42.16 42.16 0 0 0 16.34-61l-10.65-16 16.06 10.63a42.15 42.15 0 0 0 46.5-.01zm-39.76 80.94a90.06 90.06 0 0 1 39.76-9.22v31.69a41.15 41.15 0 0 0-14.23 15.86L276.59 330l1.17-18.78a40.76 40.76 0 0 0-18.13-36.42z" fill="#ffeb85"/>
        <path d="M299.39 245.84v19.74a88.47 88.47 0 0 0-39.76 9.42 41.68 41.68 0 0 0-25.42-7.42 108 108 0 0 1 65.18-21.74z" fill="#c6e4e5"/>
        <path d="M193.68 379.1a108.82 108.82 0 0 1-2.36-14.19l-29.58 29.58q2.31 5.86 5 11.55z" fill="#ffeb85"/>
        <path d="M164.32 463.08l5 5 14.48-14.48q-2.28-2.69-4.47-5.46z" fill="#c6e4e5"/>
        <path d="M214.88 422.45q-2.22-2.76-4.26-5.67L187.5 439.9q2.16 2.79 4.43 5.5z" fill="#ffeb85"/>
        <path d="M158.12 414.66l8.62-8.62q-2.7-5.69-5-11.55l-8.83 8.83q2.43 5.76 5.21 11.34zm25.65 38.9l8.16-8.16q-2.27-2.72-4.43-5.5l-8.2 8.2q2.19 2.78 4.47 5.46z" fill="#fff"/>
        <path d="M38.1 469.55l3.31 3.31 70.06-70.06c-.56-1.66-1.1-3.32-1.62-5zm.42 48.16L46.8 526l82.78-82.78c-2-3.54-3.93-7.14-5.76-10.79z" fill="#ffeb85"/>
        <path d="M158.12 414.66zm-5.21-11.34z" fill="#c6e4e5"/>
        <path d="M155.41 409l.05.1z" fill="#4db5d9"/>
        <path d="M125.58 382.07l-15.73 15.73c.52 1.68 1.06 3.34 1.62 5l17.42-17.42zm4 61.13l28.54-28.54c-.92-1.83-1.8-3.69-2.66-5.55l-.05-.1c-.86-1.88-1.7-3.78-2.5-5.69l-29.09 29.09c1.83 3.65 3.74 7.25 5.76 10.79z" fill="#c6e4e5"/>
        <path fill="#ffbe15" d="M364.55 340.09l-34.38-34.37-1.66 1.66 32.71 32.71 6.29 6.29 5.39 2.07-8.35-8.36z"/>
        <path fill="#4db5d9" d="M386.55 362.1l-13.65-13.65-5.39-2.07 17.38 17.36 1.66-1.64z"/>
        <path d="M224.88 402.51c1.29 2 2.67 3.94 4.13 5.81l27.41-27.42-2.54-7.39z" fill="#ffeb85"/>
        <path fill="#fff" d="M280.26 357.07l-4.97-4.97-21.02 21.03-.39.38 2.54 7.39 7.68-7.68 16.16-16.15z"/>
    </g>
</svg>